<?xml version="1.0" encoding="UTF-8"?>
<svg id="svg3336" version="1.1" viewBox="0 0 166.92 207.34" xmlns="http://www.w3.org/2000/svg" xmlns:cc="http://creativecommons.org/ns#" xmlns:dc="http://purl.org/dc/elements/1.1/" xmlns:rdf="http://www.w3.org/1999/02/22-rdf-syntax-ns#">
<metadata id="metadata3342">
<rdf:RDF>
<cc:Work rdf:about="">
<dc:format>image/svg+xml</dc:format>
<dc:type rdf:resource="http://purl.org/dc/dcmitype/StillImage"/>
<dc:title/>
</cc:Work>
</rdf:RDF>
</metadata>
<path id="path3532-4" d="m115.32 0c-5.9952 0.0087184-11.958 1.6093-17.104 5.0273-7.3086 3.851-10.473 11.741-13.68 18.283-10.553 1.6575-9.9476 3.4312-6 2.4121 7.2793-1.8792 6.726 0.85914-1.4277 5.2656-11.649-1.9648-19.896-4.4582-11.285-3.8574 9.5634 0.6673 0.085929-2.7083-5.1367-2.0059-8.0301-10.778-31.318-15.078-43.078-11.582-10.764 5.3913-8.6126 24.711-7.8672 35.791-0.87069 14.593-12.217 27.316-9.2441 42.441 0.34977 11.253 10.159 16.986 18.717 21.984-3.8765 3.6626-4.1708 6.202-2.6523 7.9746-0.40551 24.707-0.99706 50.428 3.3516 74.977 0.4234 2.3902 0.83764 4.2436 1.5195 5.7617 0.6864 1.5282 1.7181 2.7132 3.1562 3.4336 2.8427 1.4241 6.781 1.2762 13.701 1.2246 32.938-0.24542 60.692 1.2702 74.824-1.3887l0.14844-0.01367v-0.00196c0.015-3e-3 0.03978-0.00286 0.05468-0.00586l-0.00195-0.00781c3.5517-0.0996 6.4463-1.9487 8.4453-4.4316 2.0437-2.5384 3.2575-5.7148 3.6328-8.6406v-0.0039l0.00391-0.03125v-0.02539-0.01172c1.1092-9.0167 0.79279-25.304 0.38281-41.439-0.25244-9.9346-0.54059-19.798-0.57812-27.732 3.1883-3.1801 0.64563-8.0857-4.9512-12.018-7.0194-4.6009-17.974-4.7326-21.277-14.656 4.8143 3.96 4.8757-2.3569 1.9922-4.8066-9.8921-6.7638 4.5502-15.363 4.3613-30.064-0.20611-16.043-2.8872-17.736-10.426-25.104-9.0695-8.9612 3.4466-9.5744 8.9473 1.6113 2.8438 7.3336 3.8068-0.51632-0.45898-4.875-5.6873-5.2272-10.234-6.8423-4.6934-7.7988 2.1512-0.37136 7.5078-1.9791 11.514-1.209 10.239 2.0454 14.726 12.374 13.934 22.199-0.49312 15.759-1.679 33.529 9.1934 46.412 6.7803 9.3606 24.965 10.337 29.436-1.791 8.9709-19.727 1.8353-41.915-6.5918-60.51-3.1821-8.8094-9.7839-15.437-16.832-21.318-6.4378-6.0923-15.267-9.4815-24.029-9.4688zm0.95703 2.3965c2.2607 0.019555 4.5063 0.29408 6.6777 0.8418 13.02 4.0873 23.182 14.451 29.762 26.17 5.1041 11.206 9.9551 22.941 11.363 35.303 0.33164 10.917 0.32373 24.661-9.5664 31.621-8.2104 4.1988-17.661-0.94142-22.129-8.1465-6.4673-12.129-5.7856-26.539-6.1484-39.922 1.5455-9.4224-1.7518-19.356-10.484-24.199-8.8392-9.1617-21.201 7.0797-27.727-2.3848 3.4247-12.049 16.044-19.389 28.252-19.283zm-0.40235 10.748c-1.0674 0.01778-2.1509 0.11461-3.25 0.29492-5.0733 0.1253-19.101 4.8289-17.506 8.7148 8.4839-5.4433 20.043-8.7117 29.662-4.5 7.9386 3.5476 9.6649 11.835 16.178 16.529-10.873-2.7718 1.4859 9.8446 0.58594 10.453-3.7946 0.91937 9.7261 8.6308 10.209 13.623-3.3056 1.5081-8.2844-8.2723-11.797-11.77-1.2444 3.6174 8.6134 12.019 13.139 16.248-1.8553 3.5662-8.0802-9.0595-12.156-10.805 0.65778 6.2068 14.002 12.259 14.186 21.318-2.073 10.442-10.606-5.7768-14.391-8.6309-2.0088 3.5261 6.5542 11.983 10.357 16.244-2.7045 1.5814-9.144-8.9014-12.498-13.012-2.8563 1.5706 2.3922 12.809 6.8301 15.521 11.833 5.8985 12.952-11.373 10.477-18.639-4.0291-12.447-8.7096-24.937-15.674-36.08-5.2924-8.5636-14.034-15.684-24.352-15.512zm-91.852 1.0957c3.5605-0.08534 7.45 0.65457 11.145 1.5469 11.561 8.3354-8.4592 4.3159 13.748 54.152 4.8719 14.408-0.18996 32.762-14.508 39.666-10.488 3.9826-23.271 0.22362-28.668-9.9551-6.8292-11.637-0.65821-25.126 4.2383-36.215 5.539-12.558-1.8578-25.992 1.4082-38.781 1.6822-7.8377 6.7025-10.272 12.637-10.414zm19.037 2.1562c2.3454-0.03747 11.714 3.7159 14.16 9.3789-1.3985 3.2219-5.135-3.5165-7.7832-4.8105-6.663-3.159-7.7842-4.5459-6.377-4.5684zm2.1504 5.4551c3.1555-0.15647 7.5199 1.5549 8.4727 5.7852-1.11 2.0115-4.7159-3.67-11.471-2.3379-1.1805-2.0734 0.54373-3.3256 2.998-3.4473zm43.047 4.4512c1.2562 0.02495 2.4549 0.78223 3.1309 2.7734l-3.4258 3.2285c-7.7192 0.39337-3.4612-6.0766 0.29492-6.002zm-41.613 1.2168c1.5229 0.0169 2.2148 0.36003 3.1328 0.49024 4.0004 0.56742-1.026 2.938-3.1523 5.9766-3.9129 8.2142 0.33518 2.9726 0.79883 1.8828 5.2141-5.6481 13.91-5.7027-2.0605 11.525-4.2771-5.2774-7.2568-15.971-2.5859-19.436 1.7408-0.34201 2.9534-0.44959 3.8672-0.43945zm12.926 0.76562c2.1089 0.06197 3.8675 1.3451 2.7422 4.6523l-2.832 1.2383-1.6289 0.27344c-6.2814-2.9759-1.7962-6.2673 1.7188-6.1641zm14.924 5.2656c1.7163 0.037012 3.4337 0.20843 5.1289 0.51367 12.288-0.12405 21.506 10.881 22.988 22.375 2.7133 16.068-11.227 27.571-14.443 42.232-10.002-0.13712-12.996-1.6407-29.18 2.9512-5.6536-1.1495-6.3464-13.872-6.0332-20.529-0.42658-14.548-9.246-17.606-4.498-33.334 4.8192-9.1258 14.424-13.897 24.322-14.201 0.57105-0.017553 1.1428-0.02015 1.7148-0.007813zm65.062 2.7578c1.1619-0.01484 3.9429 1.2738 4.6465 3.6309-0.49268 1.5039-2.1484-0.92746-2.6816-1.1191-2.793-1.6987-2.8685-2.5002-1.9648-2.5117zm1.1543 3.9844c0.75481-0.12444 4.0414 1.9755 5.25 4.4746 0.51823 2.6423-2.365-1.0912-2.8789-1.4531-2.3643-2.0713-2.824-2.9468-2.3711-3.0215zm-72.982 3.877c-4.4153 0.12934-10.671 9.5468-3.4883 14.549 4.5588 3.5811 6.5492-4.5957 6.9336-7.6797 0.18825-5.0668-1.4384-6.9279-3.4453-6.8691zm76.146 1.6738c0.11522 0.03021 0.30474 0.18852 0.59571 0.55078-0.18949 1.5845-1.095-0.68171-0.59571-0.55078zm2.6524 2.123c0.12516-0.10912 0.54236 0.23078 1.4531 1.4492 0.43782 3.2408-1.8286-1.1218-1.4531-1.4492zm-7.3926 5.6309c-0.62236 0.06046 1.948 4.5953 4.416 6.7754 6.3671 6.1246 0.92617 2.4928-2.3359-1.1973-5.0416 0.29718 4.2859 9.1919 7.1465 11.996l1.0684 1.0879c4.6102 5.5757 3.7921 0.5154-0.55078-1.9805-5.4507-5.87 1.0268-0.53749 3.7148 1.5723 2.316-3.2392-7.0891-10.811-10.322-14.922-1.911-2.4639-2.8538-3.3595-3.1367-3.332zm3.4922 22.615c0.04999-0.015349 0.11407-0.014179 0.1914 0.003906 1.0311 0.24114 4.3146 3.3207 5.1348 5.6523-1.2196 1.398-2.6903-1.6239-3.5391-2.2461-1.7691-2.34-2.1371-3.3027-1.7871-3.4102zm-48.494 15.107c0.93563 0.036721 1.4855 1.2992 0.14258 4.7891l-1.0723 0.58789c-3.2624-2.0974-0.6297-5.4382 0.92969-5.377zm-42.99 3.5c5.0664-0.22516 0.21199 13.411-2.7637 17.531-0.8528 0.68037-2.0834 0.90663-3.0918 0.45117-9.7468-4.7717 5.2973-11.113 5.8555-17.982zm44.002 5.209c3.2498 0.17029 9.8203 7.6665 8.1055 12.227-6.0615 4.8276-7.7891-2.7013-9.3887-6.9551-0.98495-3.9136-0.19399-5.3489 1.2832-5.2715zm-19.814 0.5664c3.324 0.0504 6.6345 0.61646 9.7988 1.7754 14.883 3.967 8.5386 24.342-12.584 21.959-11.713 0.22132-23.563-6.5001-17.953-17.398 6.0456-4.0624 13.426-6.4468 20.738-6.3359zm-40.764 11.336c9.8304-0.13767 16.795 6.7127 9.8867 10.428-1.435 0.77173-3.4888 1.0887-5.8125 1.1465-0.008247 2e-4 -0.017136-2e-4 -0.025391 0-0.62322 0.01498-1.2766-0.00121-1.9316-0.01953-0.47241-0.01613-0.94843-0.03548-1.4297-0.0625-0.97898-0.05502-1.9642-0.12797-2.9551-0.22266-0.017498-0.00167-0.033318-0.00418-0.050781-0.00586-1.0382-0.09968-2.0181-0.2079-3.0215-0.32422-0.013603-0.00157-0.027402-0.00232-0.041015-0.0039-0.95832-0.11124-1.9515-0.22447-2.834-0.32617-10.065-0.60523-6.6505-6.4168 1.0859-9.2734 2.4385-0.9004 4.8604-1.3042 7.1289-1.3359zm77.027 0.13867c4.0714 0.03473 8.3834 1.724 10.611 4.209 6.1e-4 6.8e-4 0.00134 0.00127 0.00195 0.00195 0.17654 0.19705 0.33892 0.39892 0.48829 0.60547 0.01903 0.02643 0.03612 0.0535 0.05468 0.08008 0.39274 0.55981 0.67011 1.1541 0.83008 1.7715 0.02631 0.10365 0.0611 0.20554 0.08008 0.31055 0.0871 0.46897 0.10131 0.95116 0.0293 1.4434-3.9e-4 0.00262 3.9e-4 0.00519 0 0.00781-2e-4 0.00129 1.9e-4 0.00262 0 0.00391-0.0353 0.23695-0.09426 0.47755-0.16993 0.71875-0.01313 0.04165-0.0286 0.08324-0.04296 0.125-0.08164 0.23826-0.1774 0.47719-0.30078 0.71875-0.04842 0.09479-0.11161 0.18829-0.1836 0.27929-0.04002 0.04984-0.0898 0.09787-0.13672 0.14649-0.03493 0.03674-0.06874 0.07333-0.10742 0.10937-0.17443 0.16028-0.38341 0.31345-0.625 0.45899-8.5e-4 5.1e-4 -0.0011 0.00144-0.00195 0.00195-1.8213 1.0958-5.4793 1.7364-9.207 1.5762-0.58338-0.0251-1.1672-0.07075-1.7461-0.13672-0.57764-0.06582-1.1503-0.1526-1.7109-0.26172-0.00126-2.4e-4 -0.00264 2.5e-4 -0.0039 0-0.89658-0.17466-1.7502-0.41637-2.5566-0.71093-2.1951-0.80176-3.9682-2.0519-4.7285-3.8945 0.47362-5.499 4.7818-7.6041 9.4258-7.5645zm-61.934 7.0742c8.4737 6.9866 19.482 8.6666 30.045 7.2774 9.0366-1.0566 14.991-7.7671 18.006-7.1192 1.4964 2.511 3.7634 4.1976 6.3457 5.3066 0.82259 1.2546 1.0423 1.546 1.4512 4.8652 2.7154 22.041 1.9 31.945 1.6348 48.213-0.0342 2.1037-0.68453 7.2767-2.3457 10.533-0.0285 0.0558-0.46403 0.53101-1.1406 0.89258-0.68816 0.36776-1.6248 0.72556-2.6172 1.0195-1.9839 0.5877-4.2605 0.93924-5.3574 0.98047-18.852 0.70853-31.143 2.0102-47.865-0.60547-2.8883-0.45178-4.6708-0.50299-5.9375-1.2461-1.2765-0.74886-2.5448-2.3841-4.2266-6.6621-1.3818-3.5148-0.87914-7.9114-0.52734-12.072 0.19265-2.2789-0.09194-5.4652-0.29102-9.0957-0.19912-3.6313-0.3253-7.6722 0.10352-11.385 0.76341-6.6099-0.48365-12.873 0.35352-19.334 0.30009-2.3158 0.4882-3.7105 0.6543-4.7637 6.0821-0.20961 11.148-1.6635 11.715-6.8047zm48.383 3.6055c-3.0819-0.0789-6.3016 2.9709-6.4277 5.248 0.12834 2.8098 1.1646 4.4658 3.3965 5.7051 2.3017 0.62217 4.563 0.27953 6.1934-1.2676l0.00391-0.00391 0.03906-0.05859 0.03516-0.05664v-0.00196c0.64904-1.1088 1.3635-2.3674 1.5117-3.7422 0.22143-2.054-1.2166-3.5815-1.8027-4.2871-0.90077-0.77684-2.1199-1.3504-2.9492-1.5332v-0.00195zm-78.461 0.95312c2.6675 1.0878 6.2445 1.6194 9.2676 1.9004-0.13114 1.659-0.16582 3.4047-0.1875 5.2441l-0.22461 19.033v0.00781c0 0.0635-8.18e-4 0.16492 0.007812 0.28906l-0.001953-0.0039c0.6226 10.177 0.2737 15.32-0.060547 19.273-0.33591 3.9728-0.65523 7.6907-0.048828 12.6 1.0979 8.8876 8.1955 16.628 17.541 16.697l54.777 0.40234c5.1866 0.0381 9.5786-3.077 11.906-6.6758 2.2788-3.5235 3.2113-7.8031 3.0879-11.557l-1.6719-50.871c-0.04106-1.249-0.23836-2.4647-0.53711-3.6445 3.4436 0.03312 6.6115-0.48897 8.7031-1.168 0.05519 7.6746 0.31259 16.786 0.54101 26.07 0.39592 16.09 0.66558 32.445-0.39648 41.002-0.31647 2.4595-1.2898 5.1016-2.8398 7.0332-1.5559 1.9388-3.5862 3.1886-6.3848 3.1992h-0.12695l-0.12696 0.02539c-13.226 2.5362-41.385 1.0266-74.541 1.3594-6.9208 0.0694-10.648 0.0954-12.25-0.64844-0.83148-0.38599-1.2502-0.83509-1.7305-1.9297-0.47364-1.0796-0.87158-2.7649-1.3086-5.1191-4.3759-23.573-3.8211-48.37-3.3945-72.52zm88.309 2.1113c0.75154 0.15901 1.509 0.28783 2.2695 0.37891 0.39246 1.2851 0.65025 2.6163 0.69727 3.9805l1.752 50.816c0.11145 3.2353-0.71015 6.822-2.6367 9.8008-1.8915 2.9245-5.1285 5.253-9.25 5.2226l-54.855-0.40234c-8.0205-0.059-13.688-6.6426-14.549-14.4-0.51518-4.6443-0.12216-7.419 0.2168-11.428 0.33872-4.0063 0.64588-9.4036 0.015625-19.699-0.0023-0.0383-0.006159-0.0723-0.005859-0.10156v-0.00195-0.00195l0.14648-19.207c0.01407-1.8601 0.070925-3.4819 0.21289-4.9492 1.2371 0.06792 2.2567 0.11253 2.6523 0.14648 0.088431 0.00236 0.17345-8e-5 0.26172 0.00195-0.15314 1.1225-0.32213 2.4606-0.58008 4.4512-0.90651 6.9957 0.34291 13.312-0.35742 19.375-0.46069 3.9889-0.32269 8.1614-0.12109 11.838 0.20154 3.6755 0.45212 6.9058 0.29883 8.7188-0.34608 4.0933-0.91811 8.8642 0.69531 13.256 1.6952 4.6144 3.3574 7.0378 5.541 8.3125 2.176 1.2702 4.4696 1.265 7.1992 1.6602 17.067 2.4707 29.589 1.3406 48.369 0.63477 1.5325-0.0576 3.9577-0.52492 6.2969-1.2637 1.1702-0.36958 2.3067-0.80671 3.2793-1.332 0.96104-0.5191 1.8478-1.1195 2.3418-2.0879 2.052-4.0226 2.361-9.4256 2.4004-11.842 0.26406-16.196 1.0811-26.377-1.6543-48.58-0.17838-1.4481-0.38901-2.4679-0.63672-3.2969zm-10.514 0.00782c1.39-0.17791 1.9839 1.4398 2.3672 2.4336 0.23914 2.6368-2.412 3.6995-4.3789 2.0195-0.43229-0.86091-0.74805-1.4262-0.74805-1.877-0.06762-1.5706 1.6254-2.3927 2.7598-2.5762zm-22.641 2.5254c-1.1586 0.01-2.3035-9.9e-4 -3.2656 0.11132-17.077 1.4848-27.118 13.603-28.135 28.93-0.41486 6.2533 0.46563 13.798 4.3418 19.275 5.3376 7.5424 15.021 11.02 24.357 10.348 8.3403-0.60076 15.376-3.292 20.182-8.0762 4.7958-4.7739 7.356-11.472 8.6269-19.523 1.2549-7.95-1.4492-15.267-6.416-21.76l-0.003906-0.0039-0.011719-0.01563c-5.9929-5.3786-13.426-8.8409-19.676-9.2852zm-0.84961 3.0527c7.4597 0.12227 14.884 4.1098 18.154 8.2402l0.00586 0.00782c4.6674 6.1074 6.8805 12.142 5.7539 19.279-1.2199 7.7286-3.6214 13.748-7.8691 17.977-4.2417 4.2224-10.239 6.5092-18.137 7.0781-8.5415 0.61526-16.999-2.5928-21.684-9.2129-3.3033-4.6678-4.0643-11.346-3.7246-17.232 0.82151-14.233 10.341-24.668 25.182-26.051 0.85179-0.094 1.5271-0.08354 2.3184-0.08594zm0.51758 4.0059c-1.3772 0.029-2.7782 0.24616-4.2637 0.58008h-0.050781l-0.060547 0.01367c-6.2277 1.4636-10.734 3.1844-13.814 6.3477-3.0823 3.1655-4.5068 7.6234-4.875 14.002-0.29386 5.0912-1.2287 9.4417 1.6484 14.35 3.3109 5.6477 8.9568 9.9902 16.684 9.4336 8.7203-0.99477 16.075-3.2738 20.531-9.9082 1.635-2.4899 2.9286-5.9336 3.8809-11.238 0.31395-11.278-4.0989-16.831-12.691-21.846-2.4617-1.3108-4.693-1.7828-6.9883-1.7344zm-0.056641 3.0742c2.0375-0.0106 3.9983 0.42773 5.5605 1.3008 7.9924 4.529 12.432 10.921 11.145 18.768-0.91391 5.0914-2.0777 8.0884-3.3984 10.09-4.6886 6.3104-13.173 8.0957-18.191 8.4648-6.6873 0.4817-10.828-2.8651-13.805-7.9434-2.3563-4.0636-1.603-8.5968-1.3223-12.545 0.42112-6.0588 1.6482-9.6512 4.0645-12.145 2.4138-2.4908 6.2643-4.0522 12.266-5.4844 1.2086-0.33106 2.4592-0.4995 3.6816-0.50586z" fill="#fff"/>
<path id="eye-open" d="m83.161 57.778c-6.8732-5.0445 0.98709-23.437 6.9068-11.42 0.74475 3.8207-0.94536 14.148-6.9068 11.42z" fill="#fff"/>
<path id="eye-blink" d="m92.844 55.557c-5.0445 6.8732-23.437-0.98709-11.42-6.9068 3.8207-0.74475 14.148 0.94536 11.42 6.9068z" fill="none"/>
</svg>
