<?xml version="1.0" encoding="UTF-8"?>
<svg id="svg3336" version="1.1" viewBox="0 0 166.92 207.34" xmlns="http://www.w3.org/2000/svg" xmlns:cc="http://creativecommons.org/ns#" xmlns:dc="http://purl.org/dc/elements/1.1/" xmlns:rdf="http://www.w3.org/1999/02/22-rdf-syntax-ns#">
<metadata id="metadata3342">
<rdf:RDF>
<cc:Work rdf:about="">
<dc:format>image/svg+xml</dc:format>
<dc:type rdf:resource="http://purl.org/dc/dcmitype/StillImage"/>
<dc:title/>
</cc:Work>
</rdf:RDF>
</metadata>
<path id="path3532-4" d="m26.074 207.32c-12.283 0.42627-18.789-5.406-19.914-17.189-1.7517-18.337-2.0935-41.336-0.94581-60.908 0.45682-7.7902 11.311-12.483 13.998-15.463-8.5583-4.998-18.367-10.732-18.717-21.985-2.9724-15.125 8.3734-27.848 9.2441-42.442-0.74537-11.08-2.8983-30.399 7.8654-35.79 11.76-3.496 35.048 0.80351 43.078 11.581 5.2226-0.70246 14.701 2.6746 5.1373 2.0073-8.6104-0.6008-0.36451 1.8924 11.285 3.8572 8.1538-4.4065 8.708-7.1462 1.4286-5.267-3.9476 1.0191-4.5532-0.75393 5.9995-2.4114 3.2067-6.5426 6.3702-14.431 13.679-18.282 12.665-8.4136 30.291-5.8199 41.133 4.4408 7.0481 5.8818 13.651 12.508 16.833 21.318 8.4271 18.594 15.561 40.784 6.5905 60.511-4.4705 12.128-22.655 11.151-29.435 1.7899-10.872-12.883-9.6862-30.652-9.1931-46.411 0.79191-9.8248-3.6939-20.154-13.933-22.199-4.0058-0.7701-9.3635 0.83578-11.515 1.2071-5.541 0.95654-0.99309 2.5717 4.6942 7.7989 4.2658 4.3587 3.3032 12.209 0.45946 4.8752-5.5007-11.186-18.017-10.571-8.9477-1.6097 7.5385 7.3676 10.219 9.0598 10.425 25.103 0.18887 14.701-14.253 23.3-4.3611 30.063 2.8836 2.4497 2.8224 8.7674-1.9919 4.8074 3.3037 9.9236 14.257 10.056 21.277 14.657 7.129 4.5373 20.102 0.86218 22.111 14.449 3.3079 22.372 2.9751 44.054-0.6463 68.026-2.1533 14.254-19.45 12.131-29.969 12.322-29.752 0.54104-57.133 0.15368-85.669 1.144zm57.321-3.9726c16.052-0.88993 32.594 0.98498 48.124-3.1749 9.9256-2.6588 8.8232-16.927 9.0989-25.913 0.50534-16.471 0.86951-32.59-1.697-48.967-0.30071-1.9188-0.55384-4.1922-5.586-6.2773-13.897-5.7583-2.5066 3.13-10.797 6.0891-5.414 1.9324-19.66 2.8751-24.831-5.8019-3.015-0.64791-8.9688 6.0631-18.005 7.1196-10.563 1.3893-21.572-0.29108-30.045-7.2776-0.66989 6.0768-7.6066 7.0232-15.103 6.8233-19.925-0.53149-15.489-2.8724-18.269-4.0333-12.073 0.64917-8.19 21.277-8.3339 34.166-0.14142 12.663-0.94661 25.529 2.0998 37.815 3.1141 12.559 20.261 8.9295 30.572 9.4824 14.238 0.76342 42.774-0.0497 42.774-0.0497zm-34.099-44.483c0.18951-10.609 1.7912-22.004 12.918-20.25 10.827 1.7071 15.86 5.6648 26.004 10.029 9.4117 4.0487 15.093 16.891 2.945 21.261-11.826 4.2549-23.364 10.4-35.913 11.697-7.7683-5e-3 -6.0571-16.974-5.9541-22.737zm44.644 4.5682c2.7908-11.918-15.683-16.29-26.002-19.947-13.851-4.9087-15.556 2.7082-15.429 15.336 0.0761 7.5471 0 0 0.59564 15.602 0.31834 8.3388 18.841-0.0131 26.832-2.3927 5.1026-1.973 12.724-3.1351 14.004-8.5987zm-8.8155-61.063c-10.126-3.7086-21.744-1.3474-30.537 4.5615-5.6099 10.898 6.24 17.619 17.953 17.397 21.123 2.3833 27.467-17.992 12.584-21.959zm38.047 19.695c4.5607-8.9288-19.843-15.968-21.009-2.432 2.8156 6.8232 19.317 5.7455 21.009 2.432zm-78.723 0.29278c8.5024-4.5724-4.0095-13.893-17.015-9.0911-7.7364 2.8566-11.151 8.6676-1.086 9.2729 6.0086 0.69253 14.265 1.8809 18.101-0.18178zm3.9264-10.007c2.9757-4.1199 7.8293-17.758 2.7629-17.533-0.55812 6.8691-15.601 13.212-5.8546 17.984 1.0084 0.45546 2.2388 0.22922 3.0916-0.45115zm54.87-0.0961c2.4943-6.6328-12.541-19.478-9.3889-6.9542 1.5996 4.2538 3.3274 11.782 9.3889 6.9542zm-68.842-2.6502c14.318-6.9043 19.38-25.259 14.508-39.666-22.207-49.836-2.1863-45.816-13.747-54.151-9.852-2.3795-21.09-3.6732-23.782 8.8671-3.266 12.79 4.1305 26.222-1.4085 38.78-4.8965 11.088-11.066 24.577-4.2372 36.214 5.397 10.179 18.179 13.939 28.667 9.9561zm53.761-10.933c3.2168-14.662 17.157-26.166 14.443-42.233-1.4827-11.494-10.7-22.5-22.988-22.376-12.055-2.1706-25.235 2.4655-31.166 13.697-4.748 15.728 4.0718 18.786 4.4983 33.334-0.31321 6.6572 0.37867 19.379 6.0323 20.528 16.184-4.5919 19.179-3.0873 29.18-2.9501zm-23.928-39.953c-10.448-7.2757 7.5358-23.895 6.9334-7.6813-0.38443 3.084-2.3745 11.262-6.9334 7.6813zm90.273 37.612c9.8901-6.96 9.8977-20.704 9.5661-31.621-1.4082-12.361-6.2592-24.097-11.363-35.303-6.5797-11.719-16.74-22.082-29.76-26.169-13.897-3.5054-30.872 4.1623-34.931 18.443 6.5252 9.4645 18.887-6.778 27.726 2.3837 8.7326 4.8435 12.031 14.777 10.486 24.2 0.36279 13.383-0.3201 27.794 6.1472 39.922 4.4674 7.2051 13.919 12.344 22.129 8.1449zm-9.0889-12.957c-4.4379-2.7125-9.6876-13.95-6.8312-15.521 3.3541 4.1103 9.7932 14.592 12.498 13.011-3.8032-4.2608-12.365-12.717-10.356-16.243 3.785 2.854 12.316 19.071 14.389 8.6296-0.18377-9.0598-13.527-15.111-14.185-21.318 4.0761 1.7452 10.301 14.372 12.156 10.806-4.5253-4.2295-14.382-12.631-13.138-16.248 3.5125 3.4972 8.491 13.277 11.797 11.769-0.48284-4.9923-14.004-12.702-10.209-13.622 0.89993-0.60849-11.459-13.224-0.58602-10.453-6.5128-4.6942-8.2391-12.983-16.178-16.531-9.6192-4.2117-21.178-0.94342-29.662 4.4999-1.5953-3.8859 12.432-8.5892 17.506-8.7145 11.723-1.9233 21.762 5.7678 27.602 15.217 6.9643 11.143 11.644 23.634 15.674 36.081 2.4756 7.2661 1.3568 24.536-10.476 18.637zm2.5287-1.5053c-1.3123-3.7306-8.931-9.3773-3.5394-2.246 0.84879 0.62216 2.3199 3.644 3.5394 2.246zm0.0282-32.454c-3.643-4.8737 0.58375 4.321 0 0zm-3.5104-3.0207c-1.5518-1.932-0.23322 1.9502 0 0zm1.4894-1.6267c-1.9337-3.9986-9.1839-6.9771-2.8792-1.4537 0.51391 0.36195 3.3975 4.096 2.8792 1.4537zm-1.7573-4.8275c-1.2508-4.1904-9.0649-5.0032-2.681-1.1205 0.53328 0.19168 2.1884 2.6245 2.681 1.1205zm4.1582 31.231c-2.8606-2.8042-12.188-11.698-7.1466-11.995 3.2621 3.6901 8.7032 7.3227 2.3361 1.1981-3.5899-3.171-7.3941-11.328-1.2787-3.4434 3.2332 4.1111 12.637 11.682 10.321 14.921-2.688-2.1098-9.1648-7.4427-3.7142-1.5727 4.3429 2.4959 5.1614 7.556 0.55118 1.9803zm-54.087 24.938c3.5812-9.3063-6.2918-2.7667-1.072 0.58911zm-48.911-48.714c15.97-17.228 7.2752-17.173 2.0611-11.525-0.46365 1.0898-4.713 6.3323-0.80008-1.8819 2.1264-3.0385 7.1532-5.4099 3.1528-5.9773-1.4688-0.20833-2.3578-0.96354-7-0.05152-4.6708 3.4648-1.6909 14.159 2.5862 19.436zm16.95-14.456c3.0008-8.8194-14.512-3.2508-4.4622 1.5106l1.6298-0.27218zm29.076-3.8625c-2.7037-7.9648-13.786 3.8141-3.354 3.2271l-1.4048 1.2581zm-37.707-1.4397c-1.6937-7.5205-14.168-7.0774-11.469-2.3381 6.7548-1.3321 10.359 4.3496 11.469 2.3381zm3.5385-1.8602c-3.9141-9.0608-25.552-13.235-7.7841-4.8107 2.6482 1.2941 6.3856 8.0326 7.7841 4.8107z" fill="#fff"/>
<path id="eye-open" d="m83.161 57.778c-6.8732-5.0445 0.98709-23.437 6.9068-11.42 0.74475 3.8207-0.94536 14.148-6.9068 11.42z" fill="#fff"/>
<path id="eye-blink" d="m92.844 55.557c-5.0445 6.8732-23.437-0.98709-11.42-6.9068 3.8207-0.74475 14.148 0.94536 11.42 6.9068z" fill="none"/>
</svg>
