<?xml version="1.0" encoding="UTF-8"?>
<svg id="svg3336" version="1.1" viewBox="0 0 166.92 207.34" xmlns="http://www.w3.org/2000/svg" xmlns:cc="http://creativecommons.org/ns#" xmlns:dc="http://purl.org/dc/elements/1.1/" xmlns:rdf="http://www.w3.org/1999/02/22-rdf-syntax-ns#">
<metadata id="metadata3342">
<rdf:RDF>
<cc:Work rdf:about="">
<dc:format>image/svg+xml</dc:format>
<dc:type rdf:resource="http://purl.org/dc/dcmitype/StillImage"/>
<dc:title/>
</cc:Work>
</rdf:RDF>
</metadata>
<path id="path3532-4" d="m115.32 0c-5.9952 0.0087184-11.958 1.6093-17.104 5.0273-7.3086 3.851-10.473 11.741-13.68 18.283-10.553 1.6575-9.9476 3.4312-6 2.4121 7.2793-1.8792 6.726 0.85914-1.4277 5.2656-11.649-1.9648-19.896-4.4582-11.285-3.8574 9.5634 0.6673 0.085929-2.7083-5.1367-2.0059-8.0301-10.778-31.318-15.078-43.078-11.582-10.764 5.3913-8.6126 24.711-7.8672 35.791-0.87069 14.593-12.217 27.316-9.2441 42.441 0.34977 11.253 10.159 16.986 18.717 21.984-4.0987 3.8727-4.1915 6.4894-2.3711 8.2715 0.11088 0.98563 0.098703 2.0396-0.44141 3.2363-4.6329 10.277-13.041 32.273-13.965 58.266-1.0781 7.5955 5.7637 12.326 10.195 15.492 4.6691 3.262 11.089 6.3954 19.525 7.7852 4.1876 0.43764 7.9 1.1142 9.377-0.69922 1.0596-1.2953 3.1545-3.863 5.2773-6.5156 2.4729-3.9213 1.9378-4.76-1.7148-5.7168-3.7365-1.4205-6.5838-3.1477-9.0098-4.8633 11.63 5.4585 22.377 7.2637 35.434 7.6563 16.57-0.4859 21.214-1.3206 37.445-7.2774-2.5728 1.7506-5.5838 3.496-9.5469 4.8867-1.6817 0.79727-4.5457 1.4431-3.2871 3.168 2.2034 2.791 4.6737 5.8022 6.2266 7.6797 1.9585 2.5353 5.2656 2.3592 8.5547 1.9277 9.7124-1.2932 16.909-4.8878 21.941-8.5371 9.2437-5.9848 9.9246-9.8056 9.3555-18.842-1.9592-20.058-6.8658-37.528-11.242-48.457-1.4425-3.8534-3.1681-9.2541-4.4941-12.99l-0.15039 0.26367c-0.73363-2.3593-2.9082-4.8924-6.0723-7.1152-7.0194-4.6009-17.974-4.7326-21.277-14.656 4.8143 3.96 4.8757-2.3569 1.9922-4.8066-9.8921-6.7638 4.5502-15.363 4.3613-30.064-0.20611-16.043-2.8872-17.736-10.426-25.104-9.0695-8.9612 3.4466-9.5744 8.9473 1.6113 2.8438 7.3336 3.8068-0.51632-0.45898-4.875-5.6873-5.2272-10.234-6.8423-4.6934-7.7988 2.1512-0.37136 7.5078-1.9791 11.514-1.209 10.239 2.0454 14.726 12.374 13.934 22.199-0.49312 15.759-1.679 33.529 9.1934 46.412 6.7803 9.3606 24.965 10.337 29.436-1.791 8.9709-19.727 1.8353-41.915-6.5918-60.51-3.1821-8.8094-9.7839-15.437-16.832-21.318-6.4378-6.0923-15.267-9.4815-24.029-9.4688zm0.95703 2.3965c2.2607 0.019555 4.5063 0.29408 6.6777 0.8418 13.02 4.0873 23.182 14.451 29.762 26.17 5.1041 11.206 9.9551 22.941 11.363 35.303 0.33164 10.917 0.32373 24.661-9.5664 31.621-8.2104 4.1988-17.661-0.94142-22.129-8.1465-6.4673-12.129-5.7856-26.539-6.1484-39.922 1.5455-9.4224-1.7518-19.356-10.484-24.199-8.8392-9.1617-21.201 7.0797-27.727-2.3848 3.4247-12.049 16.044-19.389 28.252-19.283zm-0.40235 10.748c-1.0674 0.01778-2.1509 0.11461-3.25 0.29492-5.0733 0.1253-19.101 4.8289-17.506 8.7148 8.4839-5.4433 20.043-8.7117 29.662-4.5 7.9386 3.5476 9.6649 11.835 16.178 16.529-10.873-2.7718 1.4859 9.8446 0.58594 10.453-3.7946 0.91937 9.7261 8.6308 10.209 13.623-3.3056 1.5081-8.2844-8.2723-11.797-11.77-1.2444 3.6174 8.6134 12.019 13.139 16.248-1.8553 3.5662-8.0802-9.0595-12.156-10.805 0.65778 6.2068 14.002 12.259 14.186 21.318-2.073 10.442-10.606-5.7768-14.391-8.6309-2.0088 3.5261 6.5542 11.983 10.357 16.244-2.7045 1.5814-9.144-8.9014-12.498-13.012-2.8563 1.5706 2.3922 12.809 6.8301 15.521 11.833 5.8985 12.952-11.373 10.477-18.639-4.0291-12.447-8.7096-24.937-15.674-36.08-5.2924-8.5636-14.034-15.684-24.352-15.512zm-91.852 1.0957c3.5605-0.08534 7.45 0.65457 11.145 1.5469 11.561 8.3354-8.4592 4.3159 13.748 54.152 4.8719 14.408-0.18996 32.762-14.508 39.666-10.488 3.9826-23.271 0.22362-28.668-9.9551-6.8292-11.637-0.65821-25.126 4.2383-36.215 5.539-12.558-1.8578-25.992 1.4082-38.781 1.6822-7.8377 6.7025-10.272 12.637-10.414zm19.037 2.1562c2.3454-0.03747 11.714 3.7159 14.16 9.3789-1.3985 3.2219-5.135-3.5165-7.7832-4.8105-6.663-3.159-7.7842-4.5459-6.377-4.5684zm2.1504 5.4551c3.1555-0.15647 7.5199 1.5549 8.4727 5.7852-1.11 2.0115-4.7159-3.67-11.471-2.3379-1.1805-2.0734 0.54373-3.3256 2.998-3.4473zm43.047 4.4512c1.2562 0.02495 2.4549 0.78223 3.1309 2.7734l-3.4258 3.2285c-7.7192 0.39337-3.4612-6.0766 0.29492-6.002zm-41.613 1.2168c1.5229 0.0169 2.2148 0.36003 3.1328 0.49024 4.0004 0.56742-1.026 2.938-3.1523 5.9766-3.9129 8.2142 0.33518 2.9726 0.79883 1.8828 5.2141-5.6481 13.91-5.7027-2.0605 11.525-4.2771-5.2774-7.2568-15.971-2.5859-19.436 1.7408-0.34201 2.9534-0.44959 3.8672-0.43945zm12.926 0.76562c2.1089 0.06197 3.8675 1.3451 2.7422 4.6523l-2.832 1.2383-1.6289 0.27344c-6.2814-2.9759-1.7962-6.2673 1.7188-6.1641zm14.924 5.2656c1.7163 0.037012 3.4337 0.20843 5.1289 0.51367 12.288-0.12405 21.506 10.881 22.988 22.375 2.7133 16.068-11.227 27.571-14.443 42.232-10.002-0.13712-12.996-1.6407-29.18 2.9512-5.6536-1.1495-6.3464-13.872-6.0332-20.529-0.42658-14.548-9.246-17.606-4.498-33.334 4.8192-9.1258 14.424-13.897 24.322-14.201 0.57105-0.017553 1.1428-0.02015 1.7148-0.007813zm65.062 2.7578c1.1619-0.01484 3.9429 1.2738 4.6465 3.6309-0.49268 1.5039-2.1484-0.92746-2.6816-1.1191-2.793-1.6987-2.8685-2.5002-1.9648-2.5117zm1.1543 3.9844c0.75481-0.12444 4.0414 1.9755 5.25 4.4746 0.51823 2.6423-2.365-1.0912-2.8789-1.4531-2.3643-2.0713-2.824-2.9468-2.3711-3.0215zm-72.982 3.877c-4.4153 0.12934-10.671 9.5468-3.4883 14.549 4.5588 3.5811 6.5492-4.5957 6.9336-7.6797 0.18825-5.0668-1.4384-6.9279-3.4453-6.8691zm76.146 1.6738c0.11522 0.03021 0.30474 0.18852 0.59571 0.55078-0.18949 1.5845-1.095-0.68171-0.59571-0.55078zm2.6524 2.123c0.12516-0.10912 0.54236 0.23078 1.4531 1.4492 0.43782 3.2408-1.8286-1.1218-1.4531-1.4492zm-7.3926 5.6309c-0.62236 0.06046 1.948 4.5953 4.416 6.7754 6.3671 6.1246 0.92617 2.4928-2.3359-1.1973-5.0416 0.29718 4.2859 9.1919 7.1465 11.996l1.0684 1.0879c4.6102 5.5757 3.7921 0.5154-0.55078-1.9805-5.4507-5.87 1.0268-0.53749 3.7148 1.5723 2.316-3.2392-7.0891-10.811-10.322-14.922-1.911-2.4639-2.8538-3.3595-3.1367-3.332zm3.4922 22.615c0.04999-0.015349 0.11407-0.014179 0.1914 0.003906 1.0311 0.24114 4.3146 3.3207 5.1348 5.6523-1.2196 1.398-2.6903-1.6239-3.5391-2.2461-1.7691-2.34-2.1371-3.3027-1.7871-3.4102zm-48.494 15.107c0.93563 0.036721 1.4855 1.2992 0.14258 4.7891l-1.0723 0.58789c-3.2624-2.0974-0.6297-5.4382 0.92969-5.377zm-42.99 3.5c5.0664-0.22516 0.21199 13.411-2.7637 17.531-0.8528 0.68037-2.0834 0.90663-3.0918 0.45117-9.7468-4.7717 5.2973-11.113 5.8555-17.982zm44.002 5.209c3.2498 0.17029 9.8203 7.6665 8.1055 12.227-6.0615 4.8276-7.7891-2.7013-9.3887-6.9551-0.98495-3.9136-0.19399-5.3489 1.2832-5.2715zm-19.814 0.5664c3.324 0.0504 6.6345 0.61646 9.7988 1.7754 14.883 3.967 8.5386 24.342-12.584 21.959-11.713 0.22132-23.563-6.5001-17.953-17.398 6.0456-4.0624 13.426-6.4468 20.738-6.3359zm-40.764 11.336c9.8304-0.13767 16.795 6.7127 9.8867 10.428-3.8355 2.0626-12.093 0.87417-18.102 0.18164-10.065-0.60523-6.6505-6.4168 1.0859-9.2734 2.4385-0.9004 4.8604-1.3042 7.1289-1.3359zm77.027 0.13867c6.7873 0.0579 14.29 4.6946 11.582 9.9961-1.6925 3.3135-18.192 4.3916-21.008-2.4316 0.47362-5.499 4.7818-7.6041 9.4258-7.5645zm-61.934 7.0742c8.4737 6.9866 19.482 8.6666 30.045 7.2774 9.0366-1.0566 14.991-7.7671 18.006-7.1192 5.171 8.677 19.416 7.7351 24.83 5.8027 3.7024-1.1859 5.116 5.8741 6.1133 8.4141 4.0414 13.413 8.1706 17.067 10.402 44.416 0.30736 6.5359 1.9806 8.8359-2.7207 13.754-4.0161 4.2362-12.53 11.367-26.217 13.354-4.1922 0.50012-4.8392-0.91701-7.1934-3.3594-3.2045-4.5428-5.4399-4.5975 0.80859-6.7949 5.1059-1.7429 13.127-7.5745 16.107-11.561 0.83112-1.3668-0.70209-2.2436-2.0391-1.3652-14.971 7.7929-27.261 12.543-46.252 12.305-17.906-0.37911-32.177-4.8411-43.709-13.066-1.3266-0.92471-2.5755 0.14816-1.7441 1.5352 3.5765 3.8111 5.598 6.7839 16.02 12.33 4.3114 1.4828 3.7974 1.4748-0.22461 6.5742-1.568 2.3737-3.3117 3.6513-5.8145 3.4648-11.861-0.99949-19.223-6.193-24.152-10.209-7.9422-5.3808-6.7284-8.1826-6.2578-15.377 0.25813-20.002 6.3614-35.362 10.52-45.998 2.9366-6.3258 1.8534-8.5405 5.4492-8.4648 0.91586-0.04831 1.5624-0.10928 2.1074-0.17578 4.6227 0.92193 9.7217 0.99429 10.812 1.0879 7.4967 0.19997 14.434-0.74739 15.104-6.8242zm1.8906 30.648c-8.6089-0.28343-14.514 5.1229-14.467 14.439 0.0945 7.5852 5.8196 14.527 13.287 14.486 8.6519-0.0472 13.279-6.5802 13.285-14.475 0.12262-7.923-5.4886-14.233-12.105-14.451zm42.646 0.09765c-7.5697 0-14.307 5.9228-14.307 13.822 0 7.9158 5.412 14.51 12.785 14.51 6.4357 0 13.646-4.8155 13.977-12.668 0.33236-7.8927-4.8854-15.664-12.455-15.664zm-43.732 2.8086c7.5153-0.0472 10.203 5.0681 10.477 11.51-0.0133 5.9627-1.3295 11.327-10.477 11.557-6.779-0.00499-10.378-5.1261-10.475-11.533-0.14172-9.4002 4.6599-11.533 10.475-11.533zm42.854 0c7.6098-0.0472 10.568 5.1099 10.477 11.533-0.0945 6.6129-4.6615 11.533-10.477 11.533-5.682 0-10.238-3.0941-10.475-11.533 0-6.4243 3.0538-11.533 10.475-11.533z" fill="#fff"/>
<path id="eye-open" d="m83.161 57.778c-6.8732-5.0445 0.98709-23.437 6.9068-11.42 0.74475 3.8207-0.94536 14.148-6.9068 11.42z" fill="#fff"/>
<path id="eye-blink" d="m92.844 55.557c-5.0445 6.8732-23.437-0.98709-11.42-6.9068 3.8207-0.74475 14.148 0.94536 11.42 6.9068z" fill="none"/>
</svg>
