<?xml version="1.0" encoding="UTF-8"?>
<svg id="svg3336" version="1.1" viewBox="0 0 166.92 207.34" xmlns="http://www.w3.org/2000/svg" xmlns:cc="http://creativecommons.org/ns#" xmlns:dc="http://purl.org/dc/elements/1.1/" xmlns:rdf="http://www.w3.org/1999/02/22-rdf-syntax-ns#">
<metadata id="metadata3342">
<rdf:RDF>
<cc:Work rdf:about="">
<dc:format>image/svg+xml</dc:format>
<dc:type rdf:resource="http://purl.org/dc/dcmitype/StillImage"/>
<dc:title/>
</cc:Work>
</rdf:RDF>
</metadata>
<path id="path3532-4" d="m115.32 0c-5.9952 0.0087184-11.958 1.6093-17.104 5.0273-7.3086 3.851-10.473 11.741-13.68 18.283-10.553 1.6575-9.9476 3.4312-6 2.4121 7.2793-1.8792 6.726 0.85914-1.4277 5.2656-11.649-1.9648-19.896-4.4582-11.285-3.8574 9.5634 0.6673 0.085929-2.7083-5.1367-2.0059-8.0301-10.778-31.318-15.078-43.078-11.582-10.764 5.3913-8.6126 24.711-7.8672 35.791-0.87069 14.593-12.217 27.316-9.2441 42.441 0.34977 11.253 10.159 16.986 18.717 21.984-5.442 5.1419-3.8356 8.0752-0.039063 9.7695-0.040508 0.25642-0.068106 0.52982-0.066406 0.84375-0.15048 11.951-1.3434 26.174-1.8145 39.637-0.47161 13.479-0.237 26.182 2.5762 35.189 0.86369 2.7655 2.0156 4.6471 3.5195 5.8789 1.5039 1.2318 3.3145 1.7718 5.3516 1.9863 4.0742 0.42898 9.175-0.34805 15.727 0.27539l0.033203 0.00196h0.03125c8.1723 0.0238 16.243-0.30804 24.496-0.78711l0.050781-0.00391 0.050781-0.00976c4.0451-0.83093 6.868-1.8267 8.8672-3.0586 1.9992-1.2319 3.1622-2.7366 3.7539-4.4316 1.1835-3.39 0.28314-7.3343 0.55469-12.18-0.18315-2.7816-1.3074-8.4361-2.0527-12.066-0.36365-1.638-0.85686-3.0299-1.8535-3.9414-0.99666-0.91146-2.473-1.1536-4.2539-0.62109-2.0766 0.62087-3.3617 0.26752-4.2383-0.50781-0.87657-0.77536-1.3734-2.1-1.4551-3.5645-0.08164-1.4644 0.25522-3.036 0.88281-4.1777 0.62759-1.1418 1.4607-1.805 2.457-1.8086 2.5604-9e-3 4.4156-0.47372 5.7539-1.3516 1.3383-0.87785 2.0971-2.1617 2.4902-3.5762 0.78632-2.829 0.31076-6.2543 0.58008-9.416 0.79831-9.3718 8.4053-16.169 17.949-15.893 2.4569 0.0713 5.3323-0.3235 7.2578 0.17773 0.96276 0.25062 1.6463 0.66492 2.0879 1.4394 0.44161 0.77454 0.65645 2.0038 0.36914 3.9316-0.17546 1.1774-0.61493 1.9698-1.2617 2.5781-0.64678 0.60829-1.5318 1.0342-2.6055 1.3301-2.1472 0.59182-4.9994 0.63034-7.7754 0.83984-1.9416 0.14653-3.568 1.4325-4.709 3.1484-1.141 1.7159-1.837 3.8962-1.9258 6.0742-0.08874 2.178 0.43984 4.3767 1.8594 6.0234 1.4195 1.6468 3.7177 2.6641 6.8809 2.5449 2.3539-0.0887 3.8766 1.1276 4.5566 2.6016 0.68003 1.4739 0.47695 3.1245-0.72852 4.0801-1.606 1.2731-4.155 1.2081-6.5371 1.293-1.1911 0.0425-2.3371 0.12007-3.3242 0.57812-0.98708 0.45803-1.7508 1.4046-1.9219 2.7637-1.3303 10.57-3.0756 24.501 2.8379 33.508 0.84252 1.2833 2.3811 2.0631 4.2383 2.5664 1.8572 0.50332 4.0719 0.71919 6.3848 0.7168 4.6257-5e-3 9.6208-0.87196 12.836-2.334 1.6089-1.0005 1.9086-2.9832 2.2441-4.5059 0.45012-2.1311 0.72262-4.8909 0.8711-8.1191 0.29696-6.4565 0.09613-14.783-0.26172-23.49-0.64147-15.609-1.776-32.44-1.5137-41.629 1.6216-0.23792 3.0452-0.57708 4.1152-0.95898 6.7866-2.844 4.446-8.995-2.2891-13.727-7.0194-4.6009-17.974-4.7326-21.277-14.656 4.8143 3.96 4.8757-2.3569 1.9922-4.8066-9.8921-6.7638 4.5502-15.363 4.3613-30.064-0.20611-16.043-2.8872-17.736-10.426-25.104-9.0695-8.9612 3.4466-9.5744 8.9473 1.6113 2.8438 7.3336 3.8068-0.51632-0.45898-4.875-5.6873-5.2272-10.234-6.8423-4.6934-7.7988 2.1512-0.37136 7.5078-1.9791 11.514-1.209 10.239 2.0454 14.726 12.374 13.934 22.199-0.49312 15.759-1.679 33.529 9.1934 46.412 6.7803 9.3606 24.965 10.337 29.436-1.791 8.9709-19.727 1.8353-41.915-6.5918-60.51-3.1821-8.8094-9.7839-15.437-16.832-21.318-6.4378-6.0923-15.267-9.4815-24.029-9.4688zm0.95703 2.3965c2.2607 0.019555 4.5063 0.29408 6.6777 0.8418 13.02 4.0873 23.182 14.451 29.762 26.17 5.1041 11.206 9.9551 22.941 11.363 35.303 0.33164 10.917 0.32373 24.661-9.5664 31.621-8.2104 4.1988-17.661-0.94142-22.129-8.1465-6.4673-12.129-5.7856-26.539-6.1484-39.922 1.5455-9.4224-1.7518-19.356-10.484-24.199-8.8392-9.1617-21.201 7.0797-27.727-2.3848 3.4247-12.049 16.044-19.389 28.252-19.283zm-0.40235 10.748c-1.0674 0.01778-2.1509 0.11461-3.25 0.29492-5.0733 0.1253-19.101 4.8289-17.506 8.7148 8.4839-5.4433 20.043-8.7117 29.662-4.5 7.9386 3.5476 9.6649 11.835 16.178 16.529-10.873-2.7718 1.4859 9.8446 0.58594 10.453-3.7946 0.91937 9.7261 8.6308 10.209 13.623-3.3056 1.5081-8.2844-8.2723-11.797-11.77-1.2444 3.6174 8.6134 12.019 13.139 16.248-1.8553 3.5662-8.0802-9.0595-12.156-10.805 0.65778 6.2068 14.002 12.259 14.186 21.318-2.073 10.442-10.606-5.7768-14.391-8.6309-2.0088 3.5261 6.5542 11.983 10.357 16.244-2.7045 1.5814-9.144-8.9014-12.498-13.012-2.8563 1.5706 2.3922 12.809 6.8301 15.521 11.833 5.8985 12.952-11.373 10.477-18.639-4.0291-12.447-8.7096-24.937-15.674-36.08-5.2924-8.5636-14.034-15.684-24.352-15.512zm-91.852 1.0957c3.5605-0.08534 7.45 0.65457 11.145 1.5469 11.561 8.3354-8.4592 4.3159 13.748 54.152 4.8719 14.408-0.18996 32.762-14.508 39.666-10.488 3.9826-23.271 0.22362-28.668-9.9551-6.8292-11.637-0.65821-25.126 4.2383-36.215 5.539-12.558-1.8578-25.992 1.4082-38.781 1.6822-7.8377 6.7025-10.272 12.637-10.414zm19.037 2.1562c2.3454-0.03747 11.714 3.7159 14.16 9.3789-1.3985 3.2219-5.135-3.5165-7.7832-4.8105-6.663-3.159-7.7842-4.5459-6.377-4.5684zm2.1504 5.4551c3.1555-0.15647 7.5199 1.5549 8.4727 5.7852-1.11 2.0115-4.7159-3.67-11.471-2.3379-1.1805-2.0734 0.54373-3.3256 2.998-3.4473zm43.047 4.4512c1.2562 0.02495 2.4549 0.78223 3.1309 2.7734l-3.4258 3.2285c-7.7192 0.39337-3.4612-6.0766 0.29492-6.002zm-41.613 1.2168c1.5229 0.0169 2.2148 0.36003 3.1328 0.49024 4.0004 0.56742-1.026 2.938-3.1523 5.9766-3.9129 8.2142 0.33518 2.9726 0.79883 1.8828 5.2141-5.6481 13.91-5.7027-2.0605 11.525-4.2771-5.2774-7.2568-15.971-2.5859-19.436 1.7408-0.34201 2.9534-0.44959 3.8672-0.43945zm12.926 0.76562c2.1089 0.06197 3.8675 1.3451 2.7422 4.6523l-2.832 1.2383-1.6289 0.27344c-6.2814-2.9759-1.7962-6.2673 1.7188-6.1641zm14.924 5.2656c1.7163 0.037012 3.4337 0.20843 5.1289 0.51367 12.288-0.12405 21.506 10.881 22.988 22.375 2.7133 16.068-11.227 27.571-14.443 42.232-10.002-0.13712-12.996-1.6407-29.18 2.9512-5.6536-1.1495-6.3464-13.872-6.0332-20.529-0.42658-14.548-9.246-17.606-4.498-33.334 4.8192-9.1258 14.424-13.897 24.322-14.201 0.57105-0.017553 1.1428-0.02015 1.7148-0.007813zm65.062 2.7578c1.1619-0.01484 3.9429 1.2738 4.6465 3.6309-0.49268 1.5039-2.1484-0.92746-2.6816-1.1191-2.793-1.6987-2.8685-2.5002-1.9648-2.5117zm1.1543 3.9844c0.75481-0.12444 4.0414 1.9755 5.25 4.4746 0.51823 2.6423-2.365-1.0912-2.8789-1.4531-2.3643-2.0713-2.824-2.9468-2.3711-3.0215zm-72.982 3.877c-4.4153 0.12934-10.671 9.5468-3.4883 14.549 4.5588 3.5811 6.5492-4.5957 6.9336-7.6797 0.18825-5.0668-1.4384-6.9279-3.4453-6.8691zm76.146 1.6738c0.11522 0.03021 0.30474 0.18852 0.59571 0.55078-0.18949 1.5845-1.095-0.68171-0.59571-0.55078zm2.6524 2.123c0.12516-0.10912 0.54236 0.23078 1.4531 1.4492 0.43782 3.2408-1.8286-1.1218-1.4531-1.4492zm-7.3926 5.6309c-0.62236 0.06046 1.948 4.5953 4.416 6.7754 6.3671 6.1246 0.92617 2.4928-2.3359-1.1973-5.0416 0.29718 4.2859 9.1919 7.1465 11.996l1.0684 1.0879c4.6102 5.5757 3.7921 0.5154-0.55078-1.9805-5.4507-5.87 1.0268-0.53749 3.7148 1.5723 2.316-3.2392-7.0891-10.811-10.322-14.922-1.911-2.4639-2.8538-3.3595-3.1367-3.332zm3.4922 22.615c0.04999-0.015349 0.11407-0.014179 0.1914 0.003906 1.0311 0.24114 4.3146 3.3207 5.1348 5.6523-1.2196 1.398-2.6903-1.6239-3.5391-2.2461-1.7691-2.34-2.1371-3.3027-1.7871-3.4102zm-48.494 15.107c0.93563 0.036721 1.4855 1.2992 0.14258 4.7891l-1.0723 0.58789c-3.2624-2.0974-0.6297-5.4382 0.92969-5.377zm-42.99 3.5c5.0664-0.22516 0.21199 13.411-2.7637 17.531-0.8528 0.68037-2.0834 0.90663-3.0918 0.45117-9.7468-4.7717 5.2973-11.113 5.8555-17.982zm44.002 5.209c3.2498 0.17029 9.8203 7.6665 8.1055 12.227-6.0615 4.8276-7.7891-2.7013-9.3887-6.9551-0.98495-3.9136-0.19399-5.3489 1.2832-5.2715zm-19.814 0.5664c3.324 0.0504 6.6345 0.61646 9.7988 1.7754 14.883 3.967 8.5386 24.342-12.584 21.959-11.713 0.22132-23.563-6.5001-17.953-17.398 6.0456-4.0624 13.426-6.4468 20.738-6.3359zm-40.764 11.336c9.8304-0.13767 16.795 6.7127 9.8867 10.428-3.8355 2.0626-12.093 0.87417-18.102 0.18164-10.065-0.60523-6.6505-6.4168 1.0859-9.2734 2.4385-0.9004 4.8604-1.3042 7.1289-1.3359zm77.027 0.13867c6.7873 0.0579 14.29 4.6946 11.582 9.9961-1.6925 3.3135-18.192 4.3916-21.008-2.4316 0.47362-5.499 4.7818-7.6041 9.4258-7.5645zm-61.934 7.0742c8.4737 6.9866 19.482 8.6666 30.045 7.2774 9.0366-1.0566 14.991-7.7671 18.006-7.1192 3.4605 5.8068 10.977 7.2951 17.199 7.0723 0.42085 2.3281 0.78799 5.303 0.8125 8.7656 0.0102 19 4.9172 42.027-0.13086 64.082-0.29423 1.2855-1.4487 2.3036-3.2539 3.0234-1.8052 0.71983-4.1907 1.0882-6.6152 1.1035-2.4246 0.0154-4.8926-0.31992-6.8691-0.95117-1.9766-0.63124-3.4139-1.5788-3.918-2.5527-3.6321-7.0173-2.2893-19.33-1.0742-28.574 0.17232-1.311 0.61958-1.6412 1.4688-1.8848 0.84916-0.24355 2.1383-0.19521 3.5273-0.22461 1.3891-0.0294 2.9129-0.15501 4.2539-0.97266 1.341-0.81764 2.3965-2.3263 2.877-4.791 0.46765-2.3989 0.09078-4.1464-0.89258-5.3106-0.98342-1.1641-2.4395-1.6711-3.916-1.9551-1.4765-0.28395-3.0215-0.35073-4.2832-0.50781-1.2557-0.15635-2.1504-0.46146-2.4355-0.80859-4.2397-6.3612-0.38968-11.677 3.4668-11.994 2.8241-0.23227 4.8165-0.32351 6.502-0.57813 1.6854-0.25461 3.0752-0.69057 4.5371-1.584 0.91335-0.55816 1.5022-1.5327 1.8789-2.6426 0.37674-1.1099 0.53978-2.3816 0.49804-3.6387-0.0417-1.2571-0.28871-2.4989-0.78515-3.5488-0.49646-1.05-1.2754-1.9361-2.375-2.2871-7.5752-2.4182-17.332-1.6748-24.256 3.4336-1.9215 1.4176-3.3365 3.9708-4.4375 7.0996-1.101 3.1288-1.864 6.8514-2.3145 10.646-0.4064 3.4236-1.1411 5.2916-1.9355 6.2715s-1.6439 1.1974-2.7246 1.2969c-1.0807 0.0995-2.3466-0.00772-3.6289 0.41992-1.2823 0.42773-2.4888 1.4719-3.3027 3.5371-1.1311 2.8698-1.1314 6.0757 0.6875 8.5 1.744 2.3244 5.1184 3.746 10.271 3.6133 0.71157 3.9295 2.1156 10.205 2.584 15.992 0.2434 3.0075 0.21754 5.848-0.26953 8.0371-0.48707 2.1891-1.3832 3.6438-2.8516 4.2344-8.7852 3.5336-19.331 2.8814-29.088 3.043-6.9541-0.28938-12.306 0.056-16.154-0.5293-1.9244-0.29265-3.4563-0.80701-4.6777-1.7012-1.2214-0.89416-2.1673-2.1791-2.8867-4.1484-7.0052-19.176-1.7008-48.573-1.2188-71.922l0.001954-0.05664c0.11691-0.68005 0.15128-1.279 0.12891-1.8066 4.9768 1.2807 11.223 1.3599 12.445 1.4648 7.4967 0.19997 14.434-0.74739 15.104-6.8242z" fill="#fff"/>
<path id="eye-open" d="m83.161 57.778c-6.8732-5.0445 0.98709-23.437 6.9068-11.42 0.74475 3.8207-0.94536 14.148-6.9068 11.42z" fill="#fff"/>
<path id="eye-blink" d="m92.844 55.557c-5.0445 6.8732-23.437-0.98709-11.42-6.9068 3.8207-0.74475 14.148 0.94536 11.42 6.9068z" fill="none"/>
</svg>
